<svg width="30" height="30" viewBox="0 0 30 30" fill="none" xmlns="http://www.w3.org/2000/svg">
    <path fill-rule="evenodd" clip-rule="evenodd" d="M0.000305176 18.7506H3.75022V22.5005H0.000305176V18.7506Z" fill="#82C7DF"/>
    <path fill-rule="evenodd" clip-rule="evenodd" d="M3.75018 18.751H7.50009V22.5009H3.75018V18.751Z" fill="#37A5CC"/>
    <path fill-rule="evenodd" clip-rule="evenodd" d="M7.50049 18.7502H11.2504V22.5001H7.50049V18.7502Z" fill="#0F91BF"/>
    <path fill-rule="evenodd" clip-rule="evenodd" d="M11.2503 18.7505H15.0002V22.5004H11.2503V18.7505Z" fill="#0F8EBF"/>
    <path fill-rule="evenodd" clip-rule="evenodd" d="M14.9998 18.7505H18.7497V22.5004H14.9998V18.7505Z" fill="#0F8EBF"/>
    <path fill-rule="evenodd" clip-rule="evenodd" d="M18.7499 18.7507H22.4998V22.5006H18.7499V18.7507Z" fill="#0F91BF"/>
    <path fill-rule="evenodd" clip-rule="evenodd" d="M22.5001 18.7506H26.25V22.5005H22.5001V18.7506Z" fill="#37A5CC"/>
    <path fill-rule="evenodd" clip-rule="evenodd" d="M26.2496 18.7506H29.9995V22.5005H26.2496V18.7506Z" fill="#82C7DF"/>
    <path fill-rule="evenodd" clip-rule="evenodd" d="M0 15.0008H3.74991V18.7507H0V15.0008Z" fill="#50BAD2"/>
    <path fill-rule="evenodd" clip-rule="evenodd" d="M3.75058 15.0003H7.50049V18.7502H3.75058V15.0003Z" fill="#109BBF"/>
    <path fill-rule="evenodd" clip-rule="evenodd" d="M7.50018 15.0004H11.2501V18.7503H7.50018V15.0004Z" fill="#109BBF"/>
    <path fill-rule="evenodd" clip-rule="evenodd" d="M11.2502 15.0005H15.0001V18.7504H11.2502V15.0005Z" fill="#109BBF"/>
    <path fill-rule="evenodd" clip-rule="evenodd" d="M15 15.0008H18.7499V18.7507H15V15.0008Z" fill="#109BBF"/>
    <path fill-rule="evenodd" clip-rule="evenodd" d="M18.7499 15.0004H22.4998V18.7503H18.7499V15.0004Z" fill="#109BBF"/>
    <path fill-rule="evenodd" clip-rule="evenodd" d="M22.5002 15.0004H26.2501V18.7503H22.5002V15.0004Z" fill="#109BBF"/>
    <path fill-rule="evenodd" clip-rule="evenodd" d="M26.25 15.0007H29.9999V18.7506H26.25V15.0007Z" fill="#50BAD2"/>
    <path fill-rule="evenodd" clip-rule="evenodd" d="M0.000793457 11.2505H3.7507V15.0004H0.000793457V11.2505Z" fill="#51C4D3"/>
    <path fill-rule="evenodd" clip-rule="evenodd" d="M3.75031 11.2505H7.50022V15.0004H3.75031V11.2505Z" fill="#13ABBF"/>
    <path fill-rule="evenodd" clip-rule="evenodd" d="M7.5 11.2503H11.2499V15.0002H7.5V11.2503Z" fill="#13ABBF"/>
    <path fill-rule="evenodd" clip-rule="evenodd" d="M11.2499 11.2507H14.9998V15.0006H11.2499V11.2507Z" fill="#13ABBF"/>
    <path fill-rule="evenodd" clip-rule="evenodd" d="M15.0001 11.2506H18.75V15.0005H15.0001V11.2506Z" fill="#13ABBF"/>
    <path fill-rule="evenodd" clip-rule="evenodd" d="M18.7503 11.2505H22.5002V15.0004H18.7503V11.2505Z" fill="#13ABBF"/>
    <path fill-rule="evenodd" clip-rule="evenodd" d="M22.4998 11.2505H26.2497V15.0004H22.4998V11.2505Z" fill="#13ABBF"/>
    <path fill-rule="evenodd" clip-rule="evenodd" d="M26.2501 11.2505H30V15.0004H26.2501V11.2505Z" fill="#51C4D3"/>
    <path fill-rule="evenodd" clip-rule="evenodd" d="M9.15527e-05 7.50031H3.75V11.2502H9.15527e-05V7.50031Z" fill="#82DBE0"/>
    <path fill-rule="evenodd" clip-rule="evenodd" d="M3.75018 7.50049H7.50009V11.2504H3.75018V7.50049Z" fill="#39C4CC"/>
    <path fill-rule="evenodd" clip-rule="evenodd" d="M7.5004 7.5004H11.2503V11.2503H7.5004V7.5004Z" fill="#14B6BF"/>
    <path fill-rule="evenodd" clip-rule="evenodd" d="M11.2499 7.5004H14.9998V11.2503H11.2499V7.5004Z" fill="#14B6BF"/>
    <path fill-rule="evenodd" clip-rule="evenodd" d="M15.0002 7.5004H18.7501V11.2503H15.0002V7.5004Z" fill="#14B6BF"/>
    <path fill-rule="evenodd" clip-rule="evenodd" d="M18.7502 7.50049H22.5001V11.2504H18.7502V7.50049Z" fill="#14B6BF"/>
    <path fill-rule="evenodd" clip-rule="evenodd" d="M22.4999 7.50031H26.2498V11.2502H22.4999V7.50031Z" fill="#39C4CC"/>
    <path fill-rule="evenodd" clip-rule="evenodd" d="M26.2496 7.50009H29.9995V11.25H26.2496V7.50009Z" fill="#82DBE0"/>
    <path fill-rule="evenodd" clip-rule="evenodd" d="M3.75018 3.75018H7.50009V7.5001H3.75018V3.75018Z" fill="#51D6D2"/>
    <path fill-rule="evenodd" clip-rule="evenodd" d="M7.50049 3.75018H11.2504V7.5001H7.50049V3.75018Z" fill="#3ACFCC"/>
    <path fill-rule="evenodd" clip-rule="evenodd" d="M11.25 3.75018H14.9999V7.5001H11.25V3.75018Z" fill="#16C3BF"/>
    <path fill-rule="evenodd" clip-rule="evenodd" d="M15 3.75031H18.7499V7.50022H15V3.75031Z" fill="#16C3BF"/>
    <path fill-rule="evenodd" clip-rule="evenodd" d="M18.7501 3.75049H22.5V7.5004H18.7501V3.75049Z" fill="#3ACFCC"/>
    <path fill-rule="evenodd" clip-rule="evenodd" d="M22.5002 3.74991H26.2501V7.49982H22.5002V3.74991Z" fill="#51D6D2"/>
    <path fill-rule="evenodd" clip-rule="evenodd" d="M7.50009 0.000305176H11.25V3.75022H7.50009V0.000305176Z" fill="#82E5DF"/>
    <path fill-rule="evenodd" clip-rule="evenodd" d="M11.25 0.000305176H14.9999V3.75032H11.25V0.000305176Z" fill="#52DDD2"/>
    <path fill-rule="evenodd" clip-rule="evenodd" d="M14.9999 0.000305176H18.7498V3.75022H14.9999V0.000305176Z" fill="#52DDD2"/>
    <path fill-rule="evenodd" clip-rule="evenodd" d="M18.7503 0H22.5002V3.74991H18.7503V0Z" fill="#82E5DF"/>
    <path fill-rule="evenodd" clip-rule="evenodd" d="M3.74979 22.5005H7.49973V26.2505H3.74979V22.5005Z" fill="#50AAD3"/>
    <path fill-rule="evenodd" clip-rule="evenodd" d="M7.5 22.5008H11.2499V26.2507H7.5V22.5008Z" fill="#379ECC"/>
    <path fill-rule="evenodd" clip-rule="evenodd" d="M11.2503 22.5008H15.0002V26.2507H11.2503V22.5008Z" fill="#0E87BF"/>
    <path fill-rule="evenodd" clip-rule="evenodd" d="M15.0002 22.5004H18.7501V26.2503H15.0002V22.5004Z" fill="#0E87BF"/>
    <path fill-rule="evenodd" clip-rule="evenodd" d="M18.75 22.5007H22.4999V26.2506H18.75V22.5007Z" fill="#379ECC"/>
    <path fill-rule="evenodd" clip-rule="evenodd" d="M22.5001 22.5009H26.25V26.2508H22.5001V22.5009Z" fill="#50AAD3"/>
    <path fill-rule="evenodd" clip-rule="evenodd" d="M7.49991 26.251H11.2499V30.001H7.49991V26.251Z" fill="#81BDE0"/>
    <path fill-rule="evenodd" clip-rule="evenodd" d="M11.2499 26.2507H14.9998V30.0006H11.2499V26.2507Z" fill="#50A3D2"/>
    <path fill-rule="evenodd" clip-rule="evenodd" d="M15.0005 26.251H18.7504V30.0009H15.0005V26.251Z" fill="#50A3D2"/>
    <path fill-rule="evenodd" clip-rule="evenodd" d="M18.75 26.251H22.4999V30.0009H18.75V26.251Z" fill="#81BDE0"/>
    <path fill-rule="evenodd" clip-rule="evenodd" d="M22.5922 12.0916L12.2954 22.3885L5.9761 16.0692L8.38684 13.6584L12.2954 17.567L20.1815 9.68091L22.5922 12.0916Z" fill="white"/>
</svg>
